<?xml version="1.0" encoding="utf-8"?>
<!-- Generator: Adobe Illustrator 22.1.0, SVG Export Plug-In . SVG Version: 6.00 Build 0)  -->
<svg version="1.1" id="Layer_1" xmlns="http://www.w3.org/2000/svg" xmlns:xlink="http://www.w3.org/1999/xlink" x="0px" y="0px"
	 viewBox="0 0 512 512" style="enable-background:new 0 0 512 512;" xml:space="preserve">
<g>
	<path d="M171.6,245.5v-35.2c0-5.8,4.7-10.5,10.5-10.5h35.2c5.8,0,10.5,4.7,10.5,10.5v35.2c0,5.8-4.7,10.5-10.5,10.5h-35.2
		C176.3,256,171.6,251.3,171.6,245.5z M294.7,256h35.2c5.8,0,10.5-4.7,10.5-10.5v-35.2c0-5.8-4.7-10.5-10.5-10.5h-35.2
		c-5.8,0-10.5,4.7-10.5,10.5v35.2C284.1,251.3,288.8,256,294.7,256z M227.9,329.8v-35.2c0-5.8-4.7-10.5-10.5-10.5h-35.2
		c-5.8,0-10.5,4.7-10.5,10.5v35.2c0,5.8,4.7,10.5,10.5,10.5h35.2C223.2,340.4,227.9,335.7,227.9,329.8z M294.7,340.4h35.2
		c5.8,0,10.5-4.7,10.5-10.5v-35.2c0-5.8-4.7-10.5-10.5-10.5h-35.2c-5.8,0-10.5,4.7-10.5,10.5v35.2
		C284.1,335.7,288.8,340.4,294.7,340.4z M452.9,449.4V481H59.1v-31.6c0-5.8,4.7-10.5,10.5-10.5h17.1V105.7
		c0-10.2,9.4-18.5,21.1-18.5h77.8V52.1c0-11.6,9.4-21.1,21.1-21.1h98.4c11.6,0,21.1,9.4,21.1,21.1v35.2h77.8
		c11.6,0,21.1,8.3,21.1,18.5v333.1h17.1C448.2,438.8,452.9,443.5,452.9,449.4z M129,437.9h98.9V379c0-5.8,4.7-10.5,10.5-10.5h35.2
		c5.8,0,10.5,4.7,10.5,10.5v58.9H383V129.4h-56.7v21.1c0,11.6-9.4,21.1-21.1,21.1h-98.4c-11.6,0-21.1-9.4-21.1-21.1v-21.1H129V437.9
		z M292.9,87.2h-22.9V64.4c0-2.9-2.4-5.3-5.3-5.3h-17.6c-2.9,0-5.3,2.4-5.3,5.3v22.9h-22.9c-2.9,0-5.3,2.4-5.3,5.3v17.6
		c0,2.9,2.4,5.3,5.3,5.3h22.9v22.9c0,2.9,2.4,5.3,5.3,5.3h17.6c2.9,0,5.3-2.4,5.3-5.3v-22.9h22.9c2.9,0,5.3-2.4,5.3-5.3V92.5
		C298.2,89.6,295.8,87.2,292.9,87.2z"/>
</g>
</svg>
